PathFileType	4	(X/Y/Z)	RBDS015\RBDS015runT35.trc
DataRate	CameraRate	NumFrames	NumMarkers	Units	OrigDataRate	OrigDataStartFrame	OrigNumFrames
150.000000	150.000000	6	33	mm	150.000000	2250	4500
Frame#	Time	L.ASIS			L.Heel.Bottom			L.Heel.Lateral			L.Heel.Top			L.Iliac.Crest			L.MT1			L.MT5			L.PSIS			L.Shank.Bottom.Lateral			L.Shank.Bottom.Medial			L.Shank.Top.Lateral			L.Shank.Top.Medial			L.Thigh.Bottom.Lateral			L.Thigh.Bottom.Medial			L.Thigh.Top.Lateral			L.Thigh.Top.Medial			R.ASIS			R.ASY			R.Heel.Bottom			R.Heel.Lateral			R.Heel.Top			R.Iliac.Crest			R.MT1			R.MT5			R.PSIS			R.Shank.Bottom.Lateral			R.Shank.Bottom.Medial			R.Shank.Top.Lateral			R.Shank.Top.Medial			R.Thigh.Bottom.Lateral			R.Thigh.Bottom.Medial			R.Thigh.Top.Lateral			R.Thigh.Top.Medial			
		X1	Y1	Z1	X2	Y2	Z2	X3	Y3	Z3	X4	Y4	Z4	X5	Y5	Z5	X6	Y6	Z6	X7	Y7	Z7	X8	Y8	Z8	X9	Y9	Z9	X10	Y10	Z10	X11	Y11	Z11	X12	Y12	Z12	X13	Y13	Z13	X14	Y14	Z14	X15	Y15	Z15	X16	Y16	Z16	X17	Y17	Z17	X18	Y18	Z18	X19	Y19	Z19	X20	Y20	Z20	X21	Y21	Z21	X22	Y22	Z22	X23	Y23	Z23	X24	Y24	Z24	X25	Y25	Z25	X26	Y26	Z26	X27	Y27	Z27	X28	Y28	Z28	X29	Y29	Z29	X30	Y30	Z30	X31	Y31	Z31	X32	Y32	Z32	X33	Y33	Z33	

2251	15	2172.455873268083	1031.829773300784	872.8968274590246	1586.22265818698	152.9466889098436	960.6013706507214	1613.421479625762	150.6983775937796	917.3383433791799	1615.860861884492	182.2090148025414	958.1542964515796	2116.452673601706	1113.767176125776	835.4061566329045	1762.764617412971	49.16884791567762	994.3263706006002	1725.048998165763	50.46843076946514	883.7911194397235	2002.971550859235	1093.781719804256	950.3405886358019	1736.349156796948	251.7471439748915	891.2059385819133	1700.120547793492	276.0120649018094	917.4955089481315	1776.682345043209	320.3198029654569	876.0525836298956	1740.544767264159	348.6213725448382	902.7773959007436	1994.956261500632	667.7019465545188	843.4227065074089	1936.418712636131	683.018019062298	875.071300988762	2014.902790936822	775.368587279083	827.711383160546	1954.275053726805	790.9895378787292	863.9231331266412	2187.606008950248	1040.055448844582	1096.743221221401	2154.32393716055	126.2596078292683	1053.116602569309	1969.786267929721	158.7881442990248	1015.597111240688	1995.936871535471	164.1180620665705	1061.571575603367	1997.890824325767	196.4066225032441	1020.699996535789	2102.44985386199	1134.751123200609	1140.227633777071	2167.579400611316	75.49099653590173	1006.572333879	2111.6771260098	83.08789333201715	1110.743943172252	2004.618022497169	1098.487003833408	1042.447870980981	2104.824885099782	265.3261473823996	1091.151784672503	2064.922292877891	290.8298708711737	1062.007134579685	2136.418372991419	338.5732080445218	1108.696577720772	2097.889850805585	362.2874334950212	1078.835779539374	2234.509279879554	712.9204691813806	1164.7084071005	2181.602168430282	680.7825469433448	1125.304072127105	2172.15015301925	801.6507131650893	1172.262562831299	2120.355620569559	770.5319021690268	1137.318307774782	
2252	15.00666666666667	2174.827284564067	1035.412211737323	873.5028333258803	1574.389856674031	167.3158977169998	957.5146959412793	1601.685758551364	162.7558077679416	914.4577317193089	1605.859336999707	194.459339170308	954.9714810993976	2120.936413364229	1119.77551168952	835.109352263636	1743.335545908672	51.69259557835778	992.9152605518657	1706.163071784048	54.28077085286735	882.4182836988734	2005.500799925358	1098.59603759483	949.422490079978	1724.795277949392	260.2450625262891	888.7681847849861	1688.726539363915	284.1170168928207	915.702314445461	1765.034007424687	328.9543509101686	874.3371208643459	1729.144179634172	356.8857527343448	901.7920568535169	1987.734934472632	674.2727757315704	843.5625454472904	1929.784559657294	691.2723161610345	875.455946170757	2010.719949751462	781.3312228834502	827.8113604668865	1950.724726737644	798.7016765038641	864.3021389484117	2189.231928294255	1044.519022592358	1096.87717857485	2183.127272733561	121.1704821216285	1051.416181857113	1997.170002615129	142.2747581996035	1012.371157862549	2022.480935476764	149.0455391155321	1058.62985420531	2022.786249263762	181.5920872603066	1017.884714611983	2104.274377967474	1140.277983866501	1140.004652453481	2199.970906895562	71.65704573402296	1004.560776310573	2142.76173258482	75.17599571316011	1108.372035228514	2006.858809642696	1103.500374556985	1041.773856648837	2124.449945224768	257.3275531493673	1088.906868979029	2083.316427514247	280.2444180275812	1059.288896894044	2151.246216980658	332.4238525873238	1106.584896487639	2111.591938144282	353.6991141919121	1076.223597363162	2233.679016222246	716.1009389468084	1162.671062183289	2181.061024594878	684.5606975294644	1122.345916928451	2171.578127144476	804.9960047509941	1170.349172122216	2120.050176730773	774.4489853278799	1134.494796771665	
2253	15.01333333333333	2177.226851388734	1038.724592612646	874.0861131086234	1563.623529602817	181.9312067497063	954.5620579256556	1590.840882256023	175.1942842911499	911.6990513597411	1596.804619039595	206.8556855544565	951.9730834121521	2125.483667394111	1125.690370722713	834.8512429606484	1724.439706085239	54.92610965221383	991.3051669483413	1687.776692381195	59.03996436338138	880.9635871921527	2008.056680386869	1103.236625845819	948.4357598288494	1714.120204902127	268.671044850312	886.4272615481747	1678.166244563583	292.2355466198667	913.8599083088944	1754.377417037731	337.4414102361685	872.6900300594411	1718.714763640294	365.0875733068192	900.7600736359847	1981.313692741533	680.586215121666	843.66759671618	1923.943507306537	699.1101809219214	875.7760244611205	2007.067416758754	787.0008907278979	827.8616858062079	1947.712196964035	805.9595999852329	864.6302530996378	2190.790559311579	1048.60882009958	1096.897003730167	2212.13047706377	117.0910509252153	1049.763857664074	2025.421625399671	126.7063915778542	1009.677630787716	2049.940439056641	134.7896788242797	1056.169350973747	2048.455005775669	167.5395034473426	1015.610832663718	2106.400422657247	1145.479609125691	1139.799549040088	2232.346929206449	69.15528009472942	1002.485902246108	2174.413716583399	68.30798910531608	1106.06042535456	2009.124950056687	1108.29904718615	1041.052667425375	2144.406064073115	249.8087032513394	1086.966391577583	2102.202999870099	270.0470227277398	1056.897580896758	2166.290117964463	326.4474576077278	1104.681272840527	2125.641527342532	345.2009308712999	1073.872507426377	2232.078476620867	718.5449720800094	1160.418515942656	2179.647351713723	687.6524701394274	1119.316271122773	2170.40647087578	807.7335398528998	1168.183647576246	2119.071642734016	777.8426822496077	1131.54572374141	
2254	15.02	2179.621335160907	1041.754857865061	874.6395888877631	1553.71880040209	196.6663792075795	951.8988643889403	1580.666184332971	187.934814533395	909.1881045865046	1588.459066092031	219.3236358896287	949.2830637840876	2130.020422858448	1131.387984153563	834.6736621242584	1706.080928621667	58.94592920350861	989.5151731455888	1669.847226339325	64.81047274352161	879.4592279854181	2010.608559768901	1107.668552002358	947.3846462205872	1704.160043743137	277.0124441585392	884.2499441765189	1668.297756934452	300.3966906232744	912.0264159885071	1744.599769720499	345.7341558629959	871.1475524623347	1709.16233057455	373.2181560050262	899.6985441713938	1975.736852337549	686.5215470817139	843.7196442240834	1918.915847113501	706.4136704638842	875.9932323208839	2003.991732859018	792.278739000426	827.8461468862554	1945.251013680052	812.6661498065862	864.8567169503746	2192.247069109197	1052.250095589776	1096.790115083888	2241.166806753273	114.1460685353427	1048.165060597661	2054.368596761131	112.2646107404282	1007.517274664256	2078.168571875011	121.5330902077075	1054.190308695425	2074.740723042714	154.4162327327035	1013.886142341308	2108.771954158954	1150.285646368651	1139.614617662327	2264.49760096348	68.09811069891668	1000.352344174128	2206.474305236863	62.64703973704709	1103.804849167357	2011.361709987618	1112.840496102584	1040.296750297705	2164.574450153385	242.9129255088131	1085.335196293134	2121.480944061857	260.388182719996	1054.826486482952	2181.46160459722	320.7734149592591	1102.985825593482	2139.970069187515	336.9259719167823	1071.774751377088	2229.7668381519	720.229947756706	1158.016428329178	2177.443563195394	690.0396613448191	1116.256087325085	2168.670350686391	809.8241466308633	1165.868511985584	2117.478387947925	780.6716800176208	1128.546200159277	
2255	15.02666666666667	2181.979128948076	1044.488187946255	875.1660874848799	1544.442684151943	211.4068228776701	949.6655146884569	1570.925224885279	200.9027696074991	907.0379866510068	1580.567470028772	231.80529644074	947.010238796331	2134.478643318019	1136.749034714221	834.6112055788909	1688.269648382156	63.81024193468492	987.572084165423	1652.335876899241	71.62384346373464	877.9356225371473	2013.124360484416	1111.860697574204	946.2813630991917	1694.740039875422	285.2858085310742	882.291745092534	1658.978263636131	308.6523833848362	910.2648589182987	1735.573038641146	353.8158005453461	869.737508776548	1700.386241215592	381.293194992318	898.63047908	1971.048404076421	691.9661503596634	843.6972272549118	1914.721438301365	713.0757845679675	876.0640333619863	2001.543686595398	797.0727532345677	827.748009530112	1943.357213499721	818.7344191755336	864.9249763668219	2193.571079961445	1055.379607601046	1096.56254872986	2270.021921231699	112.4352830276828	1046.632095949248	2083.788433711459	99.11215104921463	1005.868380324597	2106.957846766034	109.4415089227734	1052.673538490382	2101.437491266609	142.3743000966166	1012.696623434121	2111.325832308297	1154.635755942747	1139.456586989744	2296.174285433015	68.56673692710014	998.1804381428444	2238.718516429287	58.33049050861456	1101.607539383372	2013.516122067358	1117.082397321161	1039.524913154046	2184.799207914102	236.7680582786949	1084.005723144051	2141.007302126557	251.4090381556249	1053.058919179153	2196.640315839631	315.5218707479468	1101.49073520258	2154.473499274655	329.0032846291332	1069.91410879283	2226.842840575588	721.1566519295135	1155.554329357102	2174.581985060388	691.7314576368537	1113.212415267751	2166.439555924648	811.2497009915735	1163.525010839154	2115.370054937913	782.9153784044602	1125.57544688659	
2256	15.03333333333333	2184.272786347083	1046.907965608412	875.6763026860408	1535.55691944324	226.0560365556329	947.9689594156221	1561.390558068553	214.0317488999586	905.3347367477832	1572.880401819348	244.2613118411331	945.2348956561322	2138.800196359133	1141.667165135086	834.6881675579913	1671.023019081847	69.55702779849298	985.509896146354	1635.216958815324	79.47801054962133	876.4191545210551	2015.570521975487	1115.782650959197	945.1465926798262	1685.691752741916	293.5309478211421	880.5926348304001	1650.078378597576	317.0682507129143	908.6373899130496	1727.166970980109	361.6960280687775	868.4777689231361	1692.289887091826	389.3460488492705	897.5834053073502	1967.288056347483	696.8176370278896	843.5782861434437	1911.377171424107	719.0007389382639	875.9448821308139	1999.771252025615	801.299735835666	827.5527134297927	1942.045267164194	824.0876589308984	864.7805070701575	2194.739294980167	1057.952583333187	1096.23746374046	2298.433751905527	112.0169402578755	1045.185262159248	2113.405493382108	87.37750074778656	1004.687839756142	2136.035461355686	98.64814220861196	1051.581888417242	2128.287777395876	131.5367049160772	1012.006524159441	2113.993717557074	1158.480443500485	1139.336553003082	2327.09422684267	70.59207950852826	996.0083279112351	2270.852325875471	55.4495535893834	1099.480162377045	2015.540809806729	1120.981141994874	1038.760737266088	2204.886668872635	231.4736481996309	1082.959221161409	2160.595238064702	243.2301106093206	1051.569735510092	2211.674742773947	310.7930504053768	1100.181164323319	2169.011264376315	321.5489540712726	1068.267060416084	2223.441077747003	721.352414648669	1153.135341904966	2171.23620349031	692.7634133854893	1110.236807992231	2163.816309498297	812.0167623331147	1161.27816958852	2112.880862989637	784.575190577782	1122.710619704265	
